<svg width="58" height="30" viewBox="0 0 58 30" fill="none" xmlns="http://www.w3.org/2000/svg">
<path d="M2 12.7285C0.895431 12.7285 9.65645e-08 13.6239 0 14.7285C-9.65645e-08 15.8331 0.89543 16.7285 2 16.7285L2 14.7285L2 12.7285ZM57.4142 16.1427C58.1953 15.3617 58.1953 14.0954 57.4142 13.3143L44.6863 0.586384C43.9052 -0.194665 42.6389 -0.194665 41.8579 0.586383C41.0768 1.36743 41.0768 2.63376 41.8579 3.41481L53.1716 14.7285L41.8579 26.0422C41.0768 26.8233 41.0768 28.0896 41.8579 28.8707C42.6389 29.6517 43.9052 29.6517 44.6863 28.8707L57.4142 16.1427ZM2 14.7285L2 16.7285L56 16.7285L56 14.7285L56 12.7285L2 12.7285L2 14.7285Z" fill="white"/>
</svg>
